<svg id="Layer_1" data-name="Layer 1" xmlns="http://www.w3.org/2000/svg" viewBox="0 0 253.77 253.77"><defs><style>.cls-1{fill:#fff;}.cls-2{fill:#fe393b;}</style></defs><path class="cls-1" d="M162.59,114.2c1.48,6-.77,12.28-6.17,17.26-4.95,4.55-20,16.32-20.64,16.82L133,150.49l-2.83-2.21c-.63-.5-15.69-12.28-20.62-16.82-5.4-5-7.66-11.28-6.19-17.26a17.3,17.3,0,0,1,12.53-12.29,18.76,18.76,0,0,1,5-.66,20.52,20.52,0,0,1,12.09,4.11l.05,0,.07,0a19.79,19.79,0,0,1,17.05-3.45A17.26,17.26,0,0,1,162.59,114.2ZM150.2,124.71c3-2.72,4.16-5.6,3.49-8.32a8.21,8.21,0,0,0-6-5.63c-2.27-.62-6.75-.93-11.43,3.91l-3.3,3.42-3.3-3.42c-3.39-3.51-6.69-4.25-8.86-4.25a10.05,10.05,0,0,0-2.56.34,8.21,8.21,0,0,0-6,5.63c-.67,2.72.54,5.6,3.48,8.32,3.37,3.1,12.21,10.15,17.17,14.07l.07.06.07-.06C138,134.86,146.85,127.81,150.2,124.71Z"/><path class="cls-2" d="M153.69,116.39c.67,2.72-.54,5.6-3.49,8.32-3.35,3.1-12.2,10.15-17.17,14.07l-.07.06-.07-.06c-5-3.92-13.8-11-17.17-14.07-2.94-2.72-4.15-5.6-3.48-8.32a8.21,8.21,0,0,1,6-5.63,10.05,10.05,0,0,1,2.56-.34c2.17,0,5.47.74,8.86,4.25l3.3,3.42,3.3-3.42c4.68-4.84,9.16-4.53,11.43-3.91A8.21,8.21,0,0,1,153.69,116.39Z"/><path class="cls-1" d="M62.33,144.56h9.49a63.16,63.16,0,0,1-3.35-10.09H62.4c-3.32,0-3.77-2-3.77-4.23v-11A9.74,9.74,0,0,0,54.54,111l-.13-.09.13-.09a9.75,9.75,0,0,0,4.09-8.21V91.46c0-3.66,1.81-4.16,3.77-4.16h4.09V77.2H62.33c-9.23,0-14.52,5.27-14.52,14.46V101c0,3.93-2.62,4.43-4.9,4.43H41.2v10.76h1.71c4.34,0,4.9,2.37,4.9,4.43V130C47.81,139.27,53.1,144.56,62.33,144.56Z"/><path class="cls-1" d="M134,176.57c29.1,0,58.55-20.11,58.55-58.55V77.2H75.46V118C75.46,156.46,104.92,176.57,134,176.57ZM86.13,87.87H181.9V118c0,32.9-24.82,47.88-47.88,47.88s-47.89-15-47.89-47.88Z"/></svg>